<svg width="18" height="17" viewBox="0 0 18 17" fill="none" xmlns="http://www.w3.org/2000/svg">
<path fill-rule="evenodd" clip-rule="evenodd" d="M17.0406 15.5625C15.8508 13.5055 14.0172 12.0305 11.8773 11.3313C14.053 10.0361 15.0951 7.44698 14.4235 5.00575C13.7518 2.56451 11.5319 0.872875 9 0.872875C6.46806 0.872875 4.24816 2.56451 3.57652 5.00575C2.90487 7.44698 3.94704 10.0361 6.12266 11.3313C3.98281 12.0297 2.14922 13.5047 0.959375 15.5625C0.840586 15.7562 0.836273 15.9991 0.948109 16.1969C1.05995 16.3947 1.27031 16.5162 1.49752 16.5142C1.72473 16.5123 1.93298 16.3872 2.04141 16.1875C3.51328 13.6438 6.11484 12.125 9 12.125C11.8852 12.125 14.4867 13.6438 15.9586 16.1875C16.067 16.3872 16.2753 16.5123 16.5025 16.5142C16.7297 16.5162 16.9401 16.3947 17.0519 16.1969C17.1637 15.9991 17.1594 15.7562 17.0406 15.5625ZM4.625 6.5C4.625 4.08375 6.58375 2.125 9 2.125C11.4162 2.125 13.375 4.08375 13.375 6.5C13.375 8.91625 11.4162 10.875 9 10.875C6.58483 10.8724 4.62758 8.91517 4.625 6.5Z" fill="#121712"/>
</svg>
