<svg width="18" height="14" viewBox="0 0 18 14" fill="none" xmlns="http://www.w3.org/2000/svg">
<path fill-rule="evenodd" clip-rule="evenodd" d="M15.875 0.125H2.125C1.43464 0.125 0.875 0.684644 0.875 1.375V12.625C0.875 13.3154 1.43464 13.875 2.125 13.875H15.875C16.5654 13.875 17.125 13.3154 17.125 12.625V1.375C17.125 0.684644 16.5654 0.125 15.875 0.125ZM15.875 12.625H2.125V1.375H15.875V12.625ZM12.75 3.875C12.75 5.94607 11.0711 7.625 9 7.625C6.92893 7.625 5.25 5.94607 5.25 3.875C5.25 3.52982 5.52982 3.25 5.875 3.25C6.22018 3.25 6.5 3.52982 6.5 3.875C6.5 5.25571 7.61929 6.375 9 6.375C10.3807 6.375 11.5 5.25571 11.5 3.875C11.5 3.52982 11.7798 3.25 12.125 3.25C12.4702 3.25 12.75 3.52982 12.75 3.875Z" fill="#121712"/>
</svg>
