<svg width="400" height="300" viewBox="0 0 400 300" xmlns="http://www.w3.org/2000/svg">
  <!-- Fondo -->
  <rect width="400" height="300" fill="#f8f9fa"/>
  
  <!-- Silla ergon贸mica -->
  <g transform="translate(200,150)">
    <!-- Base con ruedas -->
    <ellipse cx="0" cy="80" rx="60" ry="8" fill="#2c3e50"/>
    
    <!-- Ruedas -->
    <circle cx="-50" cy="85" r="6" fill="#34495e"/>
    <circle cx="-25" cy="88" r="6" fill="#34495e"/>
    <circle cx="0" cy="90" r="6" fill="#34495e"/>
    <circle cx="25" cy="88" r="6" fill="#34495e"/>
    <circle cx="50" cy="85" r="6" fill="#34495e"/>
    
    <!-- Pist贸n central -->
    <rect x="-5" y="60" width="10" height="25" fill="#7f8c8d"/>
    
    <!-- Mecanismo de ajuste -->
    <rect x="-15" y="55" width="30" height="8" rx="4" fill="#34495e"/>
    
    <!-- Asiento -->
    <ellipse cx="0" cy="40" rx="50" ry="25" fill="#e74c3c"/>
    <ellipse cx="0" cy="38" rx="45" ry="22" fill="#c0392b"/>
    
    <!-- Detalles del asiento -->
    <path d="M -35 35 Q 0 45 35 35" fill="none" stroke="#a93226" stroke-width="2"/>
    <path d="M -25 30 Q 0 35 25 30" fill="none" stroke="#a93226" stroke-width="1"/>
    
    <!-- Respaldo -->
    <ellipse cx="0" cy="-15" rx="35" ry="50" fill="#e74c3c"/>
    <ellipse cx="0" cy="-15" rx="30" ry="45" fill="#c0392b"/>
    
    <!-- Detalles ergon贸micos del respaldo -->
    <path d="M -20 -40 Q 0 -35 20 -40" fill="none" stroke="#a93226" stroke-width="2"/>
    <path d="M -25 -20 Q 0 -15 25 -20" fill="none" stroke="#a93226" stroke-width="2"/>
    <path d="M -20 0 Q 0 5 20 0" fill="none" stroke="#a93226" stroke-width="2"/>
    
    <!-- Reposabrazos izquierdo -->
    <rect x="-65" y="10" width="20" height="8" rx="4" fill="#2c3e50"/>
    <rect x="-60" y="5" width="10" height="20" fill="#2c3e50"/>
    
    <!-- Reposabrazos derecho -->
    <rect x="45" y="10" width="20" height="8" rx="4" fill="#2c3e50"/>
    <rect x="50" y="5" width="10" height="20" fill="#2c3e50"/>
    
    <!-- Soporte del respaldo -->
    <rect x="-8" y="15" width="16" height="35" fill="#34495e"/>
    
    <!-- Reposacabezas -->
    <ellipse cx="0" cy="-70" rx="25" ry="15" fill="#e74c3c"/>
    <ellipse cx="0" cy="-70" rx="20" ry="12" fill="#c0392b"/>
    <rect x="-5" y="-60" width="10" height="15" fill="#34495e"/>
  </g>
  
  <!-- Texto -->
  <text x="200" y="250" text-anchor="middle" fill="#2c3e50" font-family="Arial" font-size="18" font-weight="bold">Silla Ergon贸mica</text>
  <text x="200" y="270" text-anchor="middle" fill="#7f8c8d" font-family="Arial" font-size="14">$400</text>
</svg>
